<svg width="18px" height="18px" fill="rgba(0, 0, 0, 1)" viewBox="0 0 512.00133 512" xmlns="http://www.w3.org/2000/svg"><path d="m502 448h-65.035156l-40.902344-53.875c-1.363281-4.417969-3.050781-8.488281-5.035156-12.125h10.972656c22.054688 0 40-17.941406 40-40 0-22.054688-17.945312-40-40-40h-149.453125l-14.007813-40h23.183594c4.125 11.640625 15.242188 20 28.277344 20h80c16.542969 0 30-13.457031 30-30s-13.457031-30-30-30h-80c-13.035156 0-24.152344 8.363281-28.277344 20h-30.1875l-44.472656-126.980469c-5.15625-14.734375-18.125-24.535156-32.640625-26.429687.992187-7.855469 1.578125-16.65625 1.578125-26.589844 0-28.992188-18.433594-60.410156-50.511719-61.9882812-.164062-.00781255-95.488281-.0117188-95.488281-.0117188-2.957031 0-5.761719 1.308594-7.660156 3.574219-1.902344 2.261719-2.703125 5.253906-2.1875 8.164062l59.847656 339.136719v102.839844c-11.640625 4.125-20 15.25-20 28.285156 0 16.542969 13.457031 30 30 30h269c2.472656 0 4.859375-.917969 6.699219-2.574219 2.628906-2.371093 14.933593-13.714843 27.164062-28.960937l26.875 28.40625c1.886719 2 4.515625 3.128906 7.261719 3.128906h95c5.523438 0 10-4.476562 10-10v-44c0-5.519531-4.476562-10-10-10zm-212-206h80c5.515625 0 10 4.488281 10 10 0 5.515625-4.484375 10-10 10h-80c-5.511719 0-10-4.484375-10-10 0-5.511719 4.488281-10 10-10zm112 80c11.027344 0 20 8.972656 20 20s-8.972656 20-20 20h-40s-134.582031 0-134.828125 0c-10.984375 0-21.171875-8.894531-21.171875-20 0-11.027344 8.972656-20 20-20zm-260.746094-187.722656s.003906-.003906.003906-.003906c3.242188-6.851563 6.707032-15.21875 9.464844-25.980469 7.710938.558593 14.75 5.582031 17.464844 13.335937l63.167969 180.371094h-5.355469c-12.835938 0-24.269531 6.085938-31.59375 15.511719l-59.71875-170.515625c2.191406-3.992188 4.40625-8.15625 6.566406-12.71875zm37.714844 199.667968c-17.640625-16.109374-38.101562-42.609374-51.429688-84.949218-12.414062-39.433594-11.355468-60.253906-5.285156-77zm-157.046875-313.945312h82.734375c4.128906.328125 31.34375 3.949219 31.34375 42 0 27.886719-5.054688 45.570312-10.265625 58h-86.167969zm235.078125 453h95.980469c-6.558594 7.710938-13.066407 14.40625-17.902344 19h-265.078125c-5.511719 0-10-4.484375-10-10 0-3.960938 2.320312-7.382812 5.671875-9h111.328125c5.511719 0 10-4.488281 10-10 0-5.507812-4.488281-10-10-10h-97v-103c0-.582031-.050781-1.164062-.152344-1.738281l-36.75-208.261719h72.609375c-9.976562 18.027344-17.695312 35.613281-17.832031 56.625-.132812 19.84375 4.664062 39.566406 10.585938 58.378906 17.871093 56.769532 47.921874 88.101563 69.988281 104.390625 8.179687 6.039063 28.550781 22.605469 47.550781 22.605469h136c9.757812 0 18 18.316406 18 40 0 9.234375-5.019531 20.246094-11.960938 31h-111.039062c-5.507812 0-10 4.492188-10 10 0 5.511719 4.492188 10 10 10zm235 19h-80.695312l-26.511719-28.03125c6.71875-10.488281 12.207031-21.792969 14.296875-32.78125l24.945312 32.859375c1.890625 2.492187 4.839844 3.953125 7.964844 3.953125h60zm0 0"/><path d="m217 453c-5.507812 0-10 4.492188-10 10 0 5.511719 4.492188 10 10 10 5.511719 0 10-4.488281 10-10 0-5.507812-4.488281-10-10-10zm0 0"/></svg>
